<svg width="214" height="284" viewBox="0 0 214 284" fill="none" xmlns="http://www.w3.org/2000/svg">
<g opacity="0.2">
<path d="M142 284C220.424 284 284 220.424 284 142C284 63.5756 220.424 0 142 0C63.5756 0 0 63.5756 0 142C0 220.424 63.5756 284 142 284Z" fill="#2EAD8A"/>
<path d="M186.294 94.3182C179.158 78.1359 162.759 74.676 142.685 78.0278L136.233 53.0156L121.024 56.944L127.368 81.8841C123.367 82.8933 119.258 83.7583 115.186 84.9116L108.843 60.1156L93.6335 64.044L100.085 89.0562C96.8051 89.9933 69.3782 97.0212 69.3782 97.0212L73.5589 113.312C73.5589 113.312 84.7315 110.176 84.6233 110.428C90.8223 108.806 93.7416 111.906 95.1112 114.825L112.843 183.374C113.059 185.357 112.699 188.745 108.446 189.898C108.698 190.042 97.3817 192.745 97.3817 192.745L99.0396 211.738C99.0396 211.738 126.214 204.783 129.782 203.882L136.306 229.182L151.515 225.254L144.991 199.773C149.172 198.8 153.245 197.791 157.209 196.746L163.696 222.082L178.906 218.154L172.382 192.889C195.809 187.195 212.351 172.418 208.963 149.821C206.801 136.197 191.916 125.025 179.554 123.763C187.159 117.024 191.015 107.185 186.294 94.3182ZM178.978 153.965C182.005 176.347 150.902 179.086 140.63 181.789L131.692 148.307C142 145.604 173.86 134.251 178.978 153.965ZM160.237 108.374C163.444 128.268 136.846 130.575 128.269 132.773L120.123 102.391C128.737 100.265 153.713 89.9572 160.237 108.374Z" fill="white"/>
</g>
</svg>
