<svg width="204" height="31" viewBox="0 0 204 31" fill="none" xmlns="http://www.w3.org/2000/svg">
<path d="M44.6209 28.6621C43.3357 28.6621 42.0452 28.6261 40.776 28.5437C39.4375 28.4563 38.1043 28.2762 36.7925 28.0086V6.03584C37.8697 5.83516 39.0696 5.70136 40.3601 5.59845C41.6453 5.49553 42.8451 5.44922 43.9597 5.44922C45.4581 5.44922 46.8287 5.55214 48.0818 5.76826C49.335 5.96895 50.4122 6.32401 51.3188 6.82316C52.2254 7.32745 52.9346 7.98097 53.4412 8.8043C53.9478 9.62764 54.2091 10.6362 54.2091 11.8249C54.2091 13.6362 53.3026 15.0616 51.4948 16.1062C52.9933 16.6414 54.0012 17.3979 54.5398 18.3241C55.0784 19.2658 55.3557 20.3207 55.3557 21.4939C55.3557 23.8765 54.4491 25.6569 52.6573 26.8508C50.8335 28.0755 48.1778 28.6621 44.6209 28.6621ZM41.9439 14.614H44.5196C46.1567 14.614 47.3033 14.4133 48.0178 14.0119C48.7111 13.6105 49.0631 12.957 49.0631 12.0668C49.0631 11.1457 48.7004 10.5076 47.9858 10.1371C47.2553 9.76658 46.1941 9.58133 44.8022 9.58133C44.3489 9.58133 43.8637 9.58133 43.341 9.59676C42.8184 9.6122 42.3652 9.63278 41.9492 9.6791C41.9439 9.6791 41.9439 14.614 41.9439 14.614ZM41.9439 18.5094V24.3653C42.3278 24.4168 42.7438 24.4476 43.1971 24.4682C43.6504 24.4888 44.1516 24.5043 44.6956 24.5043C46.2794 24.5043 47.5486 24.2881 48.5245 23.8507C49.5003 23.4133 49.9856 22.6106 49.9856 21.4322C49.9856 20.3927 49.5857 19.6363 48.7698 19.1989C47.9539 18.7461 46.786 18.5299 45.2715 18.5299H41.9492V18.5094L41.9439 18.5094Z" fill="black"/>
<path d="M62.8856 6.20546C62.8856 7.09569 62.5923 7.80067 61.979 8.32039C61.3871 8.84012 60.6725 9.09227 59.8566 9.09227C59.0727 9.10256 58.3155 8.82983 57.7342 8.32039C57.1423 7.80066 56.8276 7.11112 56.8276 6.20546C56.8276 5.31523 57.1209 4.61025 57.7342 4.09052C58.3155 3.58622 59.0727 3.30835 59.8566 3.31864C60.6405 3.30835 61.3978 3.58108 61.979 4.09052C62.587 4.61025 62.8856 5.31523 62.8856 6.20546ZM62.4003 28.3789H57.3556V11.1712H62.4003V28.3789Z" fill="black"/>
<path d="M65.1145 6.89034L70.1593 6.10303V11.1717H76.2279V15.2317H70.1593V21.273C70.1593 22.297 70.3513 23.1203 70.7139 23.7224C71.0765 24.3244 71.8444 24.6435 72.975 24.6435C73.5349 24.6383 74.0948 24.592 74.6441 24.4942C75.1827 24.4016 75.7106 24.2678 76.2279 24.0929L76.9425 27.8854C76.2812 28.1426 75.5987 28.3536 74.9054 28.508C74.1588 28.6778 73.2523 28.7756 72.159 28.7756C70.7832 28.7756 69.6367 28.5903 68.7301 28.2404C67.8235 27.8905 67.093 27.3862 66.5544 26.7275C66.0158 26.0895 65.6318 25.3021 65.4238 24.3965C65.1999 23.3982 65.0879 22.3793 65.0932 21.3604V6.89034H65.1145Z" fill="black"/>
<path d="M76.9479 19.7803C76.9372 18.5864 77.1505 17.3977 77.5718 16.2708C77.9664 15.2056 78.5797 14.2279 79.3796 13.3994C80.1635 12.5761 81.1341 11.938 82.2646 11.4543C83.3951 10.9654 84.6803 10.7339 86.1255 10.7339C87.0801 10.7339 87.9493 10.8162 88.7332 10.986C89.5225 11.1507 90.2904 11.3874 91.0316 11.691L89.9864 15.5864C89.4745 15.4063 88.9519 15.2519 88.4186 15.1336C87.7947 14.9946 87.1601 14.9277 86.5201 14.9329C85.0216 14.9329 83.9124 15.3857 83.1818 16.276C82.4513 17.1662 82.0886 18.3394 82.0886 19.8008C82.0886 21.3446 82.4353 22.5539 83.1125 23.3926C83.8058 24.2468 85.011 24.6688 86.7121 24.6688C87.3734 24.6688 88.0293 24.6122 88.6799 24.499C89.3411 24.4012 89.9917 24.2263 90.6103 23.9793L91.3249 27.9724C90.6103 28.2503 89.8744 28.4561 89.1172 28.5951C88.1519 28.7752 87.1761 28.8678 86.1948 28.8627C84.5577 28.8627 83.1658 28.626 81.9873 28.1577C80.8034 27.6894 79.8489 27.0513 79.081 26.2434C78.3131 25.4355 77.7745 24.4836 77.4278 23.3875C77.1079 22.2091 76.9479 20.9998 76.9479 19.7803Z" fill="black"/>
<path d="M108.704 19.7494C108.704 21.1079 108.496 22.3326 108.096 23.4595C107.696 24.5865 107.104 25.5385 106.342 26.3309C105.563 27.1285 104.619 27.7563 103.574 28.1783C102.492 28.6157 101.297 28.8318 99.9746 28.8318C98.6681 28.8318 97.4682 28.6157 96.391 28.1783C95.3405 27.7615 94.4019 27.1285 93.6233 26.3309C92.8554 25.5436 92.2475 24.571 91.8315 23.4595C91.3943 22.3326 91.1863 21.0925 91.1863 19.7494C91.1863 18.3909 91.4103 17.1662 91.8475 16.0547C92.2848 14.9483 92.8927 13.9912 93.6713 13.2193C94.4606 12.432 95.4045 11.8042 96.455 11.3874C97.5322 10.95 98.7001 10.7339 99.9693 10.7339C101.254 10.7339 102.438 10.95 103.516 11.3874C104.593 11.8248 105.515 12.4269 106.283 13.2193C107.072 14.0375 107.686 14.9998 108.075 16.0547C108.48 17.1662 108.704 18.3909 108.704 19.7494ZM103.558 19.7494C103.558 18.2365 103.244 17.0633 102.62 16.2091C101.996 15.3548 101.105 14.9175 99.9586 14.9175C98.8121 14.9175 97.9055 15.3548 97.2816 16.2091C96.6577 17.0633 96.327 18.2571 96.327 19.7494C96.327 21.2623 96.6417 22.451 97.2816 23.3257C97.9055 24.216 98.8121 24.6534 99.9586 24.6534C101.105 24.6534 101.996 24.216 102.62 23.3257C103.244 22.4355 103.558 21.2417 103.558 19.7494Z" fill="black"/>
<path d="M116.261 6.20546C116.261 7.09569 115.968 7.80067 115.354 8.32039C114.762 8.84012 114.048 9.09227 113.232 9.09227C112.448 9.10256 111.691 8.82983 111.109 8.32039C110.518 7.80066 110.203 7.11112 110.203 6.20546C110.203 5.31523 110.496 4.61025 111.109 4.09052C111.691 3.58622 112.448 3.30835 113.232 3.31864C114.016 3.30835 114.773 3.58108 115.354 4.09052C115.962 4.61025 116.261 5.31523 116.261 6.20546ZM115.792 28.3789H110.747V11.1712H115.792V28.3789Z" fill="black"/>
<path d="M118.66 11.758C119.514 11.5213 120.628 11.2897 121.983 11.0891C123.391 10.8781 124.814 10.77 126.244 10.77C127.758 10.77 129.011 10.9553 130.019 11.3412C131.027 11.7271 131.827 12.2623 132.403 12.9519C132.995 13.6568 133.411 14.4802 133.656 15.4373C133.901 16.3944 134.019 17.4699 134.019 18.6432V28.3637H128.974V19.2298C128.974 17.65 128.766 16.5437 128.329 15.8901C127.891 15.2366 127.091 14.9176 125.929 14.9176C125.566 14.9176 125.182 14.933 124.782 14.969C124.382 15.005 124.014 15.0359 123.705 15.0874V28.3637H118.66V11.758H118.66Z" fill="black"/>
<path d="M147.814 28.8318C143.985 28.8318 141.084 27.8078 139.085 25.7598C137.085 23.7117 136.093 20.8095 136.093 17.0324C136.093 15.1542 136.408 13.4921 137.016 12.0152C137.624 10.5384 138.461 9.29823 139.522 8.28965C140.599 7.27077 141.895 6.48346 143.314 5.98946C144.775 5.46973 146.375 5.20215 148.097 5.20215C149.089 5.20215 149.995 5.26904 150.811 5.41827C151.537 5.53148 152.251 5.69615 152.95 5.90713C153.472 6.0615 153.984 6.2519 154.48 6.47832C154.88 6.679 155.174 6.82823 155.366 6.93115L153.835 11.0427C153.03 10.6413 152.187 10.3274 151.313 10.101C150.358 9.8334 149.26 9.71505 148.044 9.71505C147.233 9.71505 146.428 9.84884 145.66 10.101C144.881 10.3686 144.177 10.8008 143.591 11.3617C142.999 11.9329 142.514 12.6893 142.146 13.595C141.783 14.5161 141.607 15.6276 141.607 16.9347C141.602 17.9175 141.719 18.9004 141.954 19.8575C142.199 20.7632 142.578 21.535 143.1 22.1886C143.655 22.8627 144.369 23.3978 145.185 23.7477C146.039 24.1337 147.084 24.3189 148.3 24.3189C148.993 24.3189 149.681 24.2778 150.369 24.1851C150.923 24.1131 151.467 24.0102 152.006 23.8661C152.432 23.7632 152.854 23.6294 153.259 23.4647C153.622 23.3155 153.952 23.1611 154.235 23.0428L155.696 27.1388C154.95 27.5762 153.904 27.9622 152.55 28.3121C151.169 28.662 149.59 28.8318 147.814 28.8318Z" fill="black"/>
<path d="M163.61 10.7188C165.109 10.7188 166.34 10.8886 167.332 11.2076C168.324 11.5266 169.124 11.9949 169.716 12.6176C170.324 13.2454 170.756 14.0069 170.985 14.8354C171.231 15.7102 171.348 16.6828 171.348 17.7377V27.875C170.617 28.0242 169.625 28.2095 168.34 28.4101C167.055 28.6108 165.487 28.7292 163.663 28.7292C162.517 28.7292 161.472 28.6263 160.533 28.4256C159.595 28.2249 158.795 27.9058 158.117 27.4685C157.445 27.0259 156.907 26.429 156.55 25.724C156.187 25.0036 156.011 24.1288 156.011 23.0739C156.011 22.0653 156.219 21.2266 156.635 20.5216C157.03 19.8372 157.605 19.266 158.304 18.8595C158.997 18.4375 159.803 18.139 160.704 17.9538C161.632 17.7634 162.576 17.6708 163.519 17.6708C164.181 17.6708 164.757 17.7068 165.258 17.7531C165.765 17.8046 166.18 17.8715 166.495 17.9692V17.5164C166.495 16.6931 166.234 16.0241 165.711 15.5198C165.189 15.0155 164.287 14.7634 162.997 14.7634C162.149 14.7634 161.301 14.8251 160.458 14.9486C159.621 15.067 158.891 15.2317 158.283 15.4529L157.637 11.5266C157.931 11.4443 158.299 11.3414 158.731 11.2436C159.168 11.1407 159.653 11.0584 160.176 10.976C160.698 10.8937 161.237 10.8423 161.813 10.7754C162.426 10.7548 163.018 10.7188 163.61 10.7188ZM164.01 24.9676C164.517 24.9676 164.986 24.9521 165.434 24.9316C165.797 24.9264 166.154 24.8904 166.511 24.8286V21.1339C166.303 21.0825 166.004 21.0516 165.589 21.0001C165.221 20.9538 164.847 20.9332 164.474 20.9332C164.026 20.9384 163.578 20.9641 163.135 21.0156C162.72 21.067 162.352 21.1648 162.042 21.3346C161.738 21.4736 161.482 21.6897 161.296 21.9573C161.109 22.2506 161.013 22.5851 161.018 22.9298C161.018 23.6863 161.28 24.2214 161.818 24.5096C162.357 24.8338 163.087 24.9676 164.01 24.9676Z" fill="black"/>
<path d="M179.192 24.8852C180.115 24.8852 180.776 24.8029 181.16 24.6177C181.544 24.4478 181.736 24.0979 181.736 23.6091C181.736 23.2231 181.491 22.8681 180.989 22.5851C180.483 22.2814 179.736 21.9624 178.712 21.597C177.928 21.314 177.198 21.0259 176.558 20.7068C175.913 20.4032 175.358 20.0379 174.921 19.6159C174.462 19.1837 174.11 18.6639 173.875 18.0876C173.63 17.501 173.513 16.796 173.513 15.9572C173.513 14.3466 174.137 13.0704 175.374 12.1287C176.611 11.187 178.312 10.7188 180.488 10.7188C181.533 10.7188 182.573 10.8165 183.602 11.0018C184.594 11.187 185.394 11.3877 185.97 11.6038L185.085 15.3963C184.456 15.1853 183.821 15.0104 183.17 14.8766C182.408 14.7171 181.635 14.6347 180.856 14.6399C179.272 14.6399 178.488 15.0618 178.488 15.916C178.483 16.0961 178.52 16.2711 178.595 16.4358C178.686 16.6107 178.824 16.7651 178.995 16.8732C179.261 17.0481 179.539 17.1974 179.832 17.326C180.264 17.5318 180.712 17.7068 181.171 17.8612C182.285 18.2625 183.186 18.6485 183.917 19.0344C184.648 19.4204 185.202 19.8423 185.623 20.2746C186.023 20.7017 186.327 21.2008 186.509 21.7514C186.685 22.2866 186.77 22.9247 186.77 23.6502C186.77 25.3432 186.109 26.64 184.786 27.4942C183.464 28.369 181.603 28.8012 179.187 28.8012C177.603 28.8012 176.28 28.6674 175.241 28.4153C174.195 28.1477 173.465 27.9264 173.049 27.7618L173.902 23.7995C174.761 24.1237 175.646 24.3809 176.547 24.5713C177.411 24.7823 178.302 24.8852 179.192 24.8852Z" fill="black"/>
<path d="M188.642 28.3793V3.78731L193.686 3V11.2436C194.113 11.115 194.55 11.0069 194.993 10.9246C195.5 10.8268 196.022 10.7754 196.539 10.7754C197.985 10.7754 199.184 10.9606 200.139 11.3465C201.094 11.7325 201.861 12.2677 202.437 12.9572C203.013 13.6622 203.413 14.4855 203.653 15.4426C203.899 16.3998 204 17.4752 204 18.6485V28.369H198.955V19.23C198.955 17.6502 198.747 16.5438 198.331 15.8903C197.915 15.2368 197.131 14.9178 196.017 14.9178C195.59 14.9126 195.164 14.9538 194.748 15.0361C194.348 15.1184 194.001 15.1853 193.686 15.2883V28.3638H188.642V28.3793H188.642Z" fill="black"/>
<path d="M15.8626 30.6135C24.6233 30.6135 31.7253 23.7604 31.7253 15.3067C31.7253 6.85306 24.6233 0 15.8626 0C7.10195 0 0 6.85306 0 15.3067C0 23.7604 7.10195 30.6135 15.8626 30.6135Z" fill="#0AC18E"/>
<path d="M20.7964 10.1843C20.0016 8.442 18.177 8.08003 15.939 8.43586L15.2206 5.75488L13.5231 6.17819L14.2288 8.85917C13.7837 8.9696 13.326 9.06163 12.8746 9.18433L12.1625 6.52175L10.465 6.94507L11.1834 9.63218C10.821 9.73034 7.76929 10.4911 7.76929 10.4911L8.23976 12.2395C8.23976 12.2395 9.48589 11.9021 9.47317 11.9328C10.1598 11.761 10.4841 12.0923 10.643 12.4052L12.6139 19.7671C12.6393 19.9819 12.6012 20.35 12.1244 20.4665C12.1498 20.4788 10.891 20.7733 10.891 20.7733L11.0753 22.8101C11.0753 22.8101 14.0953 22.0616 14.4958 21.9696L15.227 24.6874L16.9181 24.2641L16.1933 21.5279C16.6638 21.4236 17.1089 21.3132 17.5539 21.2027L18.2787 23.9266L19.9762 23.5033L19.2514 20.7917C21.8581 20.1782 23.7019 18.5954 23.3204 16.1659C23.0788 14.7058 21.4258 13.5033 20.0461 13.3684C20.8917 12.626 21.3241 11.5708 20.7964 10.1843ZM19.9826 16.5892C20.3195 18.9941 16.8609 19.2886 15.7101 19.577L14.712 15.9819C15.8691 15.6935 19.4167 14.4727 19.9826 16.5892ZM17.8972 11.6997C18.2533 13.8346 15.2969 14.0862 14.3369 14.3254L13.4277 11.0616C14.3877 10.8224 17.1724 9.71807 17.8972 11.6997Z" fill="white"/>
</svg>
