<svg width="110" height="14" viewBox="0 0 110 14" fill="none" xmlns="http://www.w3.org/2000/svg">
<g clip-path="url(#clip0_501:281)">
<path d="M21.4863 13.8172C20.7726 13.8172 20.0559 13.7978 19.351 13.7534C18.6076 13.7063 17.8672 13.6094 17.1387 13.4653V1.6347C17.7369 1.52665 18.4033 1.45461 19.12 1.3992C19.8337 1.34378 20.5001 1.31885 21.1191 1.31885C21.9513 1.31885 22.7124 1.37426 23.4084 1.49063C24.1044 1.59868 24.7026 1.78986 25.2061 2.05861C25.7096 2.33013 26.1035 2.682 26.3848 3.1253C26.6662 3.5686 26.8113 4.11164 26.8113 4.75166C26.8113 5.72692 26.3078 6.49439 25.3038 7.05682C26.136 7.34497 26.6958 7.75225 26.9949 8.25097C27.294 8.75799 27.448 9.32597 27.448 9.95767C27.448 11.2405 26.9445 12.1991 25.9494 12.8419C24.9366 13.5013 23.4617 13.8172 21.4863 13.8172ZM19.9996 6.25334H21.43C22.3392 6.25334 22.976 6.14529 23.3728 5.92918C23.7579 5.71307 23.9533 5.3612 23.9533 4.88188C23.9533 4.38594 23.7519 4.04238 23.3551 3.84289C22.9493 3.64341 22.36 3.54366 21.587 3.54366C21.3353 3.54366 21.0658 3.54366 20.7755 3.55198C20.4853 3.56029 20.2335 3.57137 20.0025 3.59631C19.9996 3.59631 19.9996 6.25334 19.9996 6.25334ZM19.9996 8.35071V11.5037C20.2128 11.5314 20.4438 11.548 20.6956 11.5591C20.9473 11.5702 21.2257 11.5785 21.5278 11.5785C22.4074 11.5785 23.1122 11.4621 23.6542 11.2266C24.1962 10.9911 24.4657 10.5589 24.4657 9.92443C24.4657 9.36476 24.2436 8.95748 23.7904 8.72197C23.3373 8.47816 22.6887 8.36179 21.8476 8.36179H20.0025V8.35071L19.9996 8.35071Z" fill="black"/>
<path d="M31.63 1.72635C31.63 2.20567 31.4671 2.58525 31.1265 2.86508C30.7978 3.14491 30.4009 3.28067 29.9478 3.28067C29.5125 3.28622 29.0919 3.13937 28.7691 2.86508C28.4404 2.58525 28.2656 2.21398 28.2656 1.72635C28.2656 1.24703 28.4285 0.867455 28.7691 0.587621C29.0919 0.316099 29.5125 0.166485 29.9478 0.172026C30.3832 0.166485 30.8037 0.313328 31.1265 0.587621C31.4642 0.867455 31.63 1.24703 31.63 1.72635ZM31.3605 13.665H28.5588V4.40001H31.3605V13.665Z" fill="black"/>
<path d="M32.8674 2.09432L35.6691 1.67041V4.39948H39.0394V6.58551H35.6691V9.83823C35.6691 10.3896 35.7757 10.8329 35.9771 11.1571C36.1785 11.4812 36.605 11.653 37.2328 11.653C37.5438 11.6502 37.8548 11.6253 38.1598 11.5726C38.4589 11.5228 38.7521 11.4507 39.0394 11.3565L39.4363 13.3985C39.069 13.537 38.6899 13.6506 38.3049 13.7337C37.8903 13.8252 37.3868 13.8778 36.7797 13.8778C36.0156 13.8778 35.3789 13.7781 34.8754 13.5897C34.3719 13.4013 33.9662 13.1297 33.667 12.7751C33.3679 12.4315 33.1547 12.0076 33.0392 11.52C32.9148 10.9825 32.8526 10.4339 32.8556 9.88534V2.09432H32.8674Z" fill="black"/>
<path d="M39.4397 9.03483C39.4337 8.39204 39.5522 7.75203 39.7862 7.14526C40.0053 6.57174 40.3459 6.04532 40.7902 5.59925C41.2255 5.15595 41.7645 4.81239 42.3924 4.55195C43.0203 4.28874 43.734 4.16406 44.5366 4.16406C45.0667 4.16406 45.5495 4.20839 45.9848 4.29982C46.4231 4.38848 46.8496 4.51593 47.2613 4.6794L46.6808 6.77677C46.3965 6.67979 46.1063 6.59667 45.8101 6.53295C45.4636 6.45814 45.1112 6.42213 44.7558 6.4249C43.9235 6.4249 43.3075 6.66871 42.9018 7.14803C42.4961 7.62735 42.2947 8.25905 42.2947 9.04591C42.2947 9.8771 42.4872 10.5282 42.8633 10.9798C43.2483 11.4397 43.9176 11.6669 44.8624 11.6669C45.2296 11.6669 45.5939 11.6365 45.9552 11.5755C46.3225 11.5229 46.6838 11.4287 47.0273 11.2957L47.4242 13.4457C47.0273 13.5953 46.6186 13.7061 46.1981 13.7809C45.662 13.8779 45.12 13.9278 44.5751 13.925C43.6659 13.925 42.8929 13.7975 42.2384 13.5454C41.5809 13.2933 41.0508 12.9497 40.6243 12.5147C40.1978 12.0798 39.8987 11.5672 39.7062 10.977C39.5285 10.3426 39.4397 9.69147 39.4397 9.03483Z" fill="black"/>
<path d="M57.076 9.01821C57.076 9.74965 56.9605 10.4091 56.7384 11.0158C56.5163 11.6226 56.1876 12.1352 55.764 12.5618C55.3317 12.9913 54.8074 13.3293 54.227 13.5565C53.6258 13.792 52.9624 13.9084 52.2279 13.9084C51.5023 13.9084 50.8359 13.792 50.2377 13.5565C49.6543 13.3321 49.133 12.9913 48.7006 12.5618C48.2741 12.1379 47.9365 11.6143 47.7055 11.0158C47.4627 10.4091 47.3472 9.74134 47.3472 9.01821C47.3472 8.28676 47.4716 7.62735 47.7144 7.02889C47.9573 6.43321 48.2949 5.91787 48.7273 5.50228C49.1656 5.07837 49.6898 4.74035 50.2732 4.51593C50.8715 4.28043 51.5201 4.16406 52.2249 4.16406C52.9387 4.16406 53.5962 4.28043 54.1944 4.51593C54.7926 4.75144 55.305 5.0756 55.7315 5.50228C56.1698 5.94281 56.5104 6.46092 56.7266 7.0289C56.9517 7.62735 57.076 8.28676 57.076 9.01821ZM54.2181 9.01821C54.2181 8.20364 54.0434 7.57194 53.6969 7.11201C53.3503 6.65209 52.8558 6.41659 52.219 6.41659C51.5823 6.41659 51.0788 6.65209 50.7323 7.11201C50.3858 7.57194 50.2022 8.21472 50.2022 9.01821C50.2022 9.83277 50.3769 10.4728 50.7323 10.9438C51.0788 11.4231 51.5823 11.6586 52.219 11.6586C52.8558 11.6586 53.3503 11.4231 53.6969 10.9438C54.0434 10.4645 54.2181 9.82169 54.2181 9.01821Z" fill="black"/>
<path d="M61.2726 1.72635C61.2726 2.20567 61.1097 2.58525 60.7691 2.86508C60.4404 3.14491 60.0435 3.28067 59.5904 3.28067C59.155 3.28622 58.7345 3.13937 58.4117 2.86508C58.0829 2.58525 57.9082 2.21398 57.9082 1.72635C57.9082 1.24703 58.0711 0.867455 58.4117 0.587621C58.7345 0.316099 59.155 0.166485 59.5904 0.172026C60.0258 0.166485 60.4463 0.313328 60.7691 0.587621C61.1067 0.867455 61.2726 1.24703 61.2726 1.72635ZM61.012 13.665H58.2103V4.40001H61.012V13.665Z" fill="black"/>
<path d="M62.605 4.71556C63.0788 4.58811 63.6978 4.46343 64.4501 4.35537C65.2319 4.24178 66.0227 4.18359 66.8164 4.18359C67.6575 4.18359 68.3535 4.28334 68.9132 4.49113C69.473 4.69893 69.9172 4.98708 70.237 5.35834C70.5658 5.73792 70.7968 6.18122 70.933 6.69656C71.0693 7.2119 71.1344 7.79096 71.1344 8.42266V13.6564H68.3327V8.73852C68.3327 7.88793 68.2172 7.29224 67.9744 6.94037C67.7315 6.5885 67.2873 6.41672 66.6416 6.41672C66.4403 6.41672 66.227 6.42504 66.0049 6.44443C65.7828 6.46383 65.5784 6.48045 65.4067 6.50816V13.6564H62.605V4.71556H62.605Z" fill="black"/>
<path d="M78.7962 13.9083C76.6698 13.9083 75.0587 13.3569 73.9481 12.2542C72.8375 11.1515 72.2866 9.58887 72.2866 7.55523C72.2866 6.54395 72.4614 5.64903 72.799 4.85386C73.1366 4.05869 73.6016 3.39097 74.1909 2.84793C74.7892 2.29934 75.5089 1.87543 76.2966 1.60945C77.1081 1.32962 77.9966 1.18555 78.9532 1.18555C79.5041 1.18555 80.0075 1.22157 80.4607 1.30191C80.8634 1.36287 81.2603 1.45153 81.6483 1.56512C81.9385 1.64824 82.2228 1.75076 82.4983 1.87266C82.7204 1.98072 82.8833 2.06107 82.9899 2.11648L82.1399 4.33021C81.6927 4.1141 81.2248 3.9451 80.7391 3.82319C80.2089 3.67912 79.5988 3.61539 78.9236 3.61539C78.4734 3.61539 78.0262 3.68743 77.5998 3.82319C77.1674 3.96726 76.7764 4.19999 76.4506 4.50199C76.1219 4.80953 75.8524 5.21682 75.648 5.70445C75.4467 6.20039 75.3489 6.79885 75.3489 7.50259C75.346 8.03178 75.4111 8.56097 75.5414 9.0763C75.6777 9.56394 75.8879 9.97953 76.1782 10.3314C76.4862 10.6944 76.883 10.9825 77.3362 11.1709C77.81 11.3787 78.3905 11.4784 79.0657 11.4784C79.4508 11.4784 79.8328 11.4563 80.2148 11.4064C80.5229 11.3676 80.8249 11.3122 81.1241 11.2346C81.361 11.1792 81.595 11.1072 81.82 11.0185C82.0214 10.9382 82.205 10.855 82.362 10.7913L83.1735 12.9967C82.7589 13.2323 82.1784 13.44 81.4261 13.6285C80.6591 13.8169 79.7825 13.9083 78.7962 13.9083Z" fill="black"/>
<path d="M87.5684 4.15576C88.4006 4.15576 89.0848 4.24719 89.6356 4.41897C90.1865 4.59075 90.6307 4.84288 90.9595 5.17812C91.2971 5.51614 91.537 5.9262 91.6643 6.37227C91.8006 6.84327 91.8657 7.36692 91.8657 7.9349V13.393C91.46 13.4734 90.9091 13.5731 90.1954 13.6812C89.4816 13.7892 88.6109 13.853 87.5981 13.853C86.9613 13.853 86.3808 13.7976 85.8596 13.6895C85.3383 13.5815 84.8941 13.4097 84.518 13.1742C84.1448 12.9359 83.8457 12.6145 83.6473 12.2349C83.4459 11.847 83.3481 11.376 83.3481 10.808C83.3481 10.265 83.4636 9.81339 83.6947 9.43381C83.9138 9.06532 84.2337 8.75778 84.6216 8.5389C85.0066 8.31171 85.4539 8.15101 85.9544 8.05127C86.4697 7.94876 86.9939 7.89889 87.5181 7.89889C87.8853 7.89889 88.2052 7.91828 88.4836 7.94322C88.7649 7.97092 88.9959 8.00694 89.1707 8.05958V7.81577C89.1707 7.37247 89.0256 7.01228 88.7353 6.74076C88.4451 6.46924 87.9446 6.33348 87.2279 6.33348C86.757 6.33348 86.2861 6.36673 85.8181 6.43322C85.3532 6.49695 84.9474 6.58561 84.6098 6.70474L84.2514 4.59075C84.4143 4.54642 84.6187 4.49101 84.8586 4.43837C85.1014 4.38295 85.3709 4.33862 85.6612 4.29429C85.9514 4.24996 86.2505 4.22226 86.5704 4.18624C86.911 4.17516 87.2397 4.15576 87.5684 4.15576ZM87.7905 11.8276C88.0719 11.8276 88.3325 11.8193 88.5813 11.8082C88.7827 11.8055 88.9811 11.7861 89.1795 11.7528V9.76352C89.064 9.73581 88.8982 9.71919 88.6672 9.69148C88.4628 9.66655 88.2555 9.65546 88.0482 9.65546C87.7994 9.65824 87.5507 9.67209 87.3048 9.69979C87.0738 9.7275 86.8695 9.78014 86.6977 9.87157C86.5289 9.94638 86.3867 10.0627 86.2831 10.2068C86.1794 10.3647 86.1261 10.5448 86.1291 10.7305C86.1291 11.1378 86.2742 11.4259 86.5733 11.5811C86.8725 11.7556 87.2782 11.8276 87.7905 11.8276Z" fill="black"/>
<path d="M96.2223 11.7833C96.7347 11.7833 97.1019 11.739 97.3152 11.6392C97.5284 11.5478 97.635 11.3594 97.635 11.0962C97.635 10.8884 97.4988 10.6972 97.2204 10.5448C96.939 10.3814 96.5244 10.2096 95.9558 10.0129C95.5204 9.86049 95.1147 9.70533 94.7593 9.53356C94.4009 9.37009 94.0929 9.17337 93.8501 8.94618C93.5954 8.71345 93.3999 8.43362 93.2696 8.1233C93.1334 7.80745 93.0682 7.42788 93.0682 6.97626C93.0682 6.10906 93.4147 5.42194 94.1018 4.91491C94.7889 4.40789 95.7337 4.15576 96.942 4.15576C97.5225 4.15576 98.1 4.2084 98.6716 4.30815C99.2224 4.40789 99.6667 4.51594 99.9865 4.63231L99.4949 6.67427C99.1454 6.56067 98.793 6.46647 98.4317 6.39443C98.0082 6.30854 97.5787 6.26421 97.1463 6.26698C96.2667 6.26698 95.8314 6.49417 95.8314 6.9541C95.8284 7.05107 95.8492 7.14527 95.8906 7.23393C95.941 7.32813 96.018 7.41125 96.1127 7.46944C96.2608 7.56364 96.4148 7.64399 96.5777 7.71325C96.8176 7.82408 97.0664 7.91828 97.3211 8.0014C97.9401 8.2175 98.4406 8.4253 98.8463 8.6331C99.252 8.8409 99.5601 9.06809 99.794 9.30082C100.016 9.53078 100.185 9.79954 100.286 10.096C100.383 10.3841 100.431 10.7277 100.431 11.1184C100.431 12.0299 100.064 12.7281 99.3291 13.188C98.5946 13.659 97.561 13.8918 96.2194 13.8918C95.3398 13.8918 94.6053 13.8197 94.0278 13.684C93.4473 13.5399 93.0416 13.4208 92.8105 13.3321L93.2844 11.1987C93.7612 11.3733 94.2528 11.5118 94.7534 11.6143C95.2332 11.7279 95.7277 11.7833 96.2223 11.7833Z" fill="black"/>
<path d="M101.47 13.6648V0.423907L104.272 0V4.43855C104.509 4.36929 104.752 4.3111 104.998 4.26677C105.279 4.21413 105.569 4.18642 105.856 4.18642C106.659 4.18642 107.325 4.28617 107.855 4.49397C108.386 4.70176 108.812 4.98991 109.132 5.36117C109.452 5.74075 109.674 6.18405 109.807 6.69939C109.943 7.21473 110 7.79379 110 8.42549V13.6592H107.198V8.73857C107.198 7.88799 107.082 7.2923 106.851 6.94043C106.62 6.58856 106.185 6.41678 105.566 6.41678C105.329 6.41401 105.092 6.43618 104.861 6.48051C104.639 6.52484 104.447 6.56086 104.272 6.61627V13.6564H101.47V13.6648H101.47Z" fill="black"/>
<path d="M7.38921 14.0193C11.4702 14.0193 14.7784 10.9244 14.7784 7.10657C14.7784 3.28878 11.4702 0.193848 7.38921 0.193848C3.30826 0.193848 0 3.28878 0 7.10657C0 10.9244 3.30826 14.0193 7.38921 14.0193Z" fill="#0AC18E"/>
<path d="M9.68747 4.79287C9.31727 4.00602 8.46729 3.84255 7.4248 4.00325L7.09014 2.79248L6.29939 2.98365L6.62813 4.19442C6.42082 4.24429 6.20758 4.28585 5.99731 4.34126L5.66561 3.13881L4.87486 3.32998L5.20952 4.54352C5.04071 4.58785 3.61914 4.93141 3.61914 4.93141L3.8383 5.72104C3.8383 5.72104 4.41877 5.56865 4.41285 5.5825C4.7327 5.50493 4.88375 5.65454 4.95779 5.79584L5.87588 9.1206C5.88773 9.21757 5.86996 9.38381 5.64784 9.43645C5.65969 9.44199 5.07329 9.57498 5.07329 9.57498L5.15918 10.4948C5.15918 10.4948 6.56594 10.1568 6.75252 10.1153L7.0931 11.3426L7.88089 11.1515L7.54327 9.91577C7.76243 9.86867 7.96974 9.8188 8.17705 9.76892L8.51468 10.9991L9.30542 10.8079L8.9678 9.58329C10.1821 9.30623 11.0409 8.59141 10.8632 7.49424C10.7507 6.83483 9.98067 6.29179 9.338 6.23083C9.7319 5.89558 9.93328 5.41904 9.68747 4.79287ZM9.30839 7.68541C9.46535 8.7715 7.85424 8.90449 7.31819 9.03471L6.85321 7.41112C7.39223 7.2809 9.0448 6.72954 9.30839 7.68541ZM8.33698 5.47722C8.50283 6.4414 7.12568 6.55499 6.67848 6.66305L6.25497 5.18907C6.70217 5.08102 7.99936 4.58231 8.33698 5.47722Z" fill="white"/>
</g>
<defs>
<clipPath id="clip0_501:281">
<rect width="110" height="14" fill="white"/>
</clipPath>
</defs>
</svg>
