<svg width="287" height="226" viewBox="0 0 287 226" fill="none" xmlns="http://www.w3.org/2000/svg">
<g opacity="0.6">
<path fill-rule="evenodd" clip-rule="evenodd" d="M61.9416 187.019V79.5177C62.6465 68.1074 63.6334 41.4022 61.9416 25.8634C60.2499 10.3245 46.8825 2.97864 40.4102 1.24804C39.8699 1.20509 39.337 1.16786 38.8114 1.13625C87.0851 1.17351 184.825 1.24804 189.592 1.24804C195.552 1.24804 213.815 10.286 216.122 25.8634C217.968 38.3253 217.788 130.159 217.468 174.519H135.187C136.148 201.634 131.727 221.25 114.04 224.134C74.1654 230.638 63.4796 198.749 61.9416 187.019Z" fill="#2A64B9"/>
<path d="M61.9416 79.5177H1V25.8634C3.64133 13.4073 11.0967 -0.530529 38.8114 1.13625M61.9416 79.5177V187.019C63.4796 198.749 74.1654 230.638 114.04 224.134M61.9416 79.5177C62.6465 68.1074 63.6334 41.4022 61.9416 25.8634C60.2499 10.3245 46.8825 2.97864 40.4102 1.24804C39.8699 1.20509 39.337 1.16786 38.8114 1.13625M114.04 224.134C131.727 221.25 136.148 201.634 135.187 174.519H217.468M114.04 224.134H262.069C287.291 219.519 287.701 189.134 284.754 174.519H217.468M38.8114 1.13625C87.0851 1.17351 184.825 1.24804 189.592 1.24804C195.552 1.24804 213.815 10.286 216.122 25.8634C217.968 38.3253 217.788 130.159 217.468 174.519" stroke="#2B4B7A" stroke-width="2"/>
</g>
</svg>
