<svg width="38" height="43" viewBox="0 0 38 43" fill="none" xmlns="http://www.w3.org/2000/svg">
<path d="M17.7681 0.217913C14.143 1.67723 16.6503 7.21724 20.2774 5.75714C21.8656 5.11781 22.4889 2.74938 21.5783 1.31153C20.8296 0.129628 19.0629 -0.303293 17.7681 0.217913Z" fill="black"/>
<path d="M10 23.2706C11.2739 23.156 12.3271 22.3272 13.5975 22.2429C13.9518 19.4546 15.0663 16.6898 16.904 14.5347C17.3447 14.0179 18.29 12.6911 19.0727 12.8282C19.8094 12.9571 20.613 14.1651 21.0555 14.706C22.8551 16.9052 24.0154 19.8289 24.5168 22.6009C24.6687 23.4409 24.5168 24.3201 24.4166 25.1549C24.1447 27.42 23.5001 29.7042 22.3167 31.664C21.807 32.5076 21.2664 33.3274 20.606 34.0621C20.3221 34.3779 19.8001 34.7745 19.8001 35.2452C19.8001 35.7333 20.4437 36.0556 20.7927 36.2796C21.9167 37.0016 22.7619 37.45 23.7377 36.2856C29.0666 29.9262 29.3777 20.162 24.789 13.3357C23.7043 11.7221 22.3408 10.2533 20.7925 9.07572C20.3033 8.70366 19.7078 8.11772 19.0794 8.01321C18.5588 7.92662 18.1069 8.28344 17.7089 8.56621C16.8474 9.17843 16.0579 9.84818 15.3108 10.5951C11.8779 14.0275 10 18.4387 10 23.2706Z" fill="black"/>
<path d="M17.7426 40.9898C16.9738 40.1298 15.576 39.0626 14.4008 38.8715C13.5467 38.7327 12.7136 39.1151 11.8946 39.2836C10.4242 39.586 8.87749 39.8228 7.38324 39.5606C6.57422 39.4186 4.68113 39.2556 4.14913 38.5953C3.74741 38.097 4.15565 37.3503 4.33944 36.8425C4.85424 35.42 5.51456 34.1059 6.38725 32.8611C8.35084 30.0602 11.1776 28.1837 14.4008 27.1101C15.0535 26.8928 15.7292 26.496 16.4124 26.4128C18.5481 26.1531 20.6375 26.8455 22.7551 26.889C22.7735 26.0079 23.2998 24.444 22.7504 23.6662C22.3914 23.1575 21.4747 23.1864 20.9172 23.1207C19.0259 22.8984 16.9527 23.0114 15.0692 23.2312C11.6837 23.626 8.83906 25.4998 6.38006 27.6711C4.5067 29.3253 2.96373 30.8963 1.89585 33.1929C1.05301 35.0054 0.597596 36.7211 0.231311 38.6673C0.115103 39.2848 -0.209477 40.3136 0.203207 40.8816C0.455273 41.2285 0.992052 41.3486 1.36816 41.509C2.61863 42.0429 3.7111 42.342 5.04405 42.5326C6.80847 42.7851 8.43973 43.064 10.2237 42.987C12.806 42.8757 15.4476 42.2045 17.7426 40.9898Z" fill="black"/>
<path d="M29.0607 25C29.0575 26.1871 28.2286 28.2882 28.829 29.3237C29.2879 30.1151 30.1294 30.7048 30.7166 31.399C31.8027 32.6828 32.6904 34.1385 33.2741 35.7227C33.5233 36.3992 34.0563 37.3804 33.859 38.1251C33.6751 38.8193 32.7116 38.9104 32.1336 39.0533C30.2412 39.5204 28.413 39.6991 26.5 39.2415C22.5867 38.3051 19.0647 36.3311 16.6716 32.9555C15.9128 31.885 15.3155 30.7069 14.804 29.4966C14.6123 29.0428 14.5063 28.2495 14.0885 27.9474C13.3683 27.4264 11.6893 28.5053 11.2388 29.0693C10.6727 29.778 11.252 30.8655 11.55 31.572C12.4929 33.8054 13.8673 35.9147 15.575 37.6225C20.1129 42.1611 26.2992 43.7351 32.475 42.6898C33.8465 42.4577 35.1094 42.1686 36.4014 41.6269C36.8424 41.442 37.4853 41.2634 37.7623 40.8388C38.2253 40.1295 37.8941 38.7422 37.7509 37.971C37.264 35.3507 36.3497 32.7463 34.86 30.5343C33.4288 28.4086 31.4329 26.0555 29.0607 25Z" fill="black"/>
</svg>
