<svg width="72" height="81" viewBox="0 0 72 81" fill="none" xmlns="http://www.w3.org/2000/svg">
<path d="M33.5816 1.20108C26.841 3.91453 31.5031 14.2156 38.2473 11.5007C41.2003 10.3119 42.3594 5.90806 40.6661 3.23455C39.2741 1.03693 35.9891 0.231959 33.5816 1.20108Z" fill="black"/>
<path d="M19.1377 44.0649C21.5063 43.8519 23.4646 42.3107 25.8269 42.154C26.4856 36.9694 28.5579 31.8285 31.9748 27.8215C32.7944 26.8606 34.5521 24.3935 36.0074 24.6483C37.3771 24.8881 38.8714 27.1342 39.6941 28.14C43.0403 32.2292 45.1977 37.6654 46.13 42.8196C46.4126 44.3815 46.13 46.0164 45.9437 47.5684C45.4382 51.7803 44.2396 56.0275 42.0391 59.6714C41.0915 61.24 40.0862 62.7643 38.8583 64.1304C38.3305 64.7177 37.3599 65.455 37.3599 66.3302C37.3599 67.238 38.5566 67.8371 39.2055 68.2537C41.2954 69.5961 42.867 70.43 44.6814 68.2648C54.5899 56.4402 55.1684 38.2848 46.6362 25.592C44.6192 22.5917 42.0841 19.8607 39.2052 17.6711C38.2954 16.9793 37.1882 15.8898 36.0199 15.6955C35.0518 15.5345 34.2116 16.1979 33.4716 16.7237C31.8697 17.862 30.4016 19.1074 29.0125 20.4963C22.6294 26.8784 19.1377 35.0804 19.1377 44.0649Z" fill="black"/>
<path d="M33.5342 77.0125C32.1048 75.4135 29.5057 73.4292 27.3207 73.0738C25.7325 72.8156 24.1835 73.5266 22.6605 73.84C19.9266 74.4024 17.0506 74.8425 14.2723 74.3552C12.768 74.0911 9.24799 73.7879 8.2588 72.5602C7.51184 71.6336 8.27092 70.2453 8.61266 69.3011C9.56986 66.656 10.7977 64.2127 12.4203 61.8981C16.0714 56.6901 21.3274 53.2011 27.3207 51.2048C28.5342 50.8007 29.7906 50.0628 31.0609 49.9083C35.032 49.4253 38.917 50.7128 42.8546 50.7936C42.8887 49.1554 43.8674 46.2475 42.8459 44.8012C42.1782 43.8554 40.4738 43.9091 39.4371 43.787C35.9206 43.3736 32.0657 43.5837 28.5634 43.9924C22.2685 44.7265 16.9792 48.2106 12.407 52.248C8.92365 55.3236 6.05467 58.2447 4.06907 62.515C2.50189 65.8852 1.65511 69.0753 0.974042 72.6941C0.757966 73.8422 0.154446 75.7553 0.921787 76.8114C1.39047 77.4564 2.38856 77.6797 3.08789 77.978C5.413 78.9706 7.44433 79.5268 9.92279 79.8812C13.2035 80.3507 16.2367 80.8692 19.5538 80.7261C24.3553 80.5191 29.2671 79.2711 33.5342 77.0125Z" fill="black"/>
<path d="M54.5789 47.2803C54.5729 49.4876 53.0318 53.3944 54.1482 55.3196C55.0014 56.7912 56.566 57.8877 57.6579 59.1785C59.6774 61.5656 61.328 64.2723 62.4133 67.2179C62.8767 68.4759 63.8677 70.3002 63.5008 71.6849C63.1589 72.9757 61.3674 73.1452 60.2926 73.4108C56.7739 74.2794 53.3746 74.6115 49.8176 73.7607C42.5412 72.0197 35.9925 68.3492 31.5428 62.0727C30.1319 60.0822 29.0212 57.8916 28.0702 55.6412C27.7137 54.7974 27.5166 53.3223 26.7399 52.7606C25.4007 51.792 22.2788 53.798 21.4411 54.8466C20.3885 56.1644 21.4656 58.1865 22.0198 59.5001C23.7729 63.6529 26.3285 67.5749 29.5037 70.7504C37.9415 79.1895 49.4443 82.1161 60.9274 80.1725C63.4776 79.741 65.8259 79.2033 68.2282 78.1961C69.0481 77.8524 70.2435 77.5202 70.7587 76.7307C71.6195 75.4119 71.0037 72.8323 70.7374 71.3984C69.8321 66.5262 68.132 61.6836 65.3621 57.5707C62.7009 53.6182 58.9898 49.2428 54.5789 47.2803Z" fill="black"/>
</svg>
