<svg width="72" height="81" viewBox="0 0 72 81" fill="none" xmlns="http://www.w3.org/2000/svg">
<path d="M33.5816 1.20108C26.841 3.91453 31.5031 14.2156 38.2473 11.5007C41.2003 10.3119 42.3594 5.90806 40.6661 3.23455C39.2741 1.03693 35.9891 0.231959 33.5816 1.20108Z" fill="white"/>
<path d="M19.1377 44.0649C21.5063 43.8519 23.4646 42.3107 25.8269 42.154C26.4856 36.9694 28.5579 31.8285 31.9748 27.8215C32.7944 26.8606 34.5521 24.3935 36.0074 24.6483C37.3771 24.8881 38.8714 27.1342 39.6941 28.14C43.0403 32.2292 45.1977 37.6654 46.13 42.8196C46.4126 44.3815 46.13 46.0164 45.9437 47.5684C45.4382 51.7803 44.2396 56.0275 42.0391 59.6714C41.0915 61.24 40.0862 62.7643 38.8583 64.1304C38.3305 64.7177 37.3599 65.455 37.3599 66.3302C37.3599 67.238 38.5566 67.8371 39.2055 68.2537C41.2954 69.5961 42.867 70.43 44.6814 68.2648C54.5899 56.4402 55.1684 38.2848 46.6362 25.592C44.6192 22.5917 42.0841 19.8607 39.2052 17.6711C38.2954 16.9793 37.1882 15.8898 36.0199 15.6955C35.0518 15.5345 34.2116 16.1979 33.4716 16.7237C31.8697 17.862 30.4016 19.1074 29.0125 20.4963C22.6294 26.8784 19.1377 35.0804 19.1377 44.0649Z" fill="white"/>
<path d="M33.534 77.0125C32.1046 75.4135 29.5055 73.4292 27.3205 73.0738C25.7323 72.8156 24.1832 73.5266 22.6603 73.84C19.9263 74.4024 17.0504 74.8425 14.272 74.3552C12.7677 74.0911 9.24775 73.7879 8.25855 72.5602C7.51159 71.6336 8.27067 70.2453 8.61242 69.3011C9.56961 66.656 10.7974 64.2127 12.4201 61.8981C16.0712 56.6901 21.3272 53.2011 27.3205 51.2048C28.534 50.8007 29.7903 50.0628 31.0607 49.9083C35.0318 49.4253 38.9168 50.7128 42.8543 50.7936C42.8885 49.1554 43.8671 46.2475 42.8456 44.8012C42.178 43.8554 40.4736 43.9091 39.4369 43.787C35.9203 43.3736 32.0654 43.5837 28.5632 43.9924C22.2682 44.7265 16.979 48.2106 12.4067 52.248C8.9234 55.3236 6.05443 58.2447 4.06883 62.515C2.50165 65.8852 1.65486 69.0753 0.973798 72.6941C0.757722 73.8422 0.154202 75.7553 0.921543 76.8114C1.39023 77.4564 2.38831 77.6797 3.08765 77.978C5.41275 78.9706 7.44408 79.5268 9.92254 79.8812C13.2033 80.3507 16.2364 80.8692 19.5535 80.7261C24.355 80.5191 29.2669 79.2711 33.534 77.0125Z" fill="white"/>
<path d="M54.5784 47.2803C54.5724 49.4876 53.0313 53.3944 54.1477 55.3196C55.0009 56.7912 56.5655 57.8877 57.6574 59.1785C59.6769 61.5656 61.3275 64.2723 62.4128 67.2179C62.8762 68.4759 63.8672 70.3002 63.5003 71.6849C63.1584 72.9757 61.3669 73.1452 60.2921 73.4108C56.7734 74.2794 53.3741 74.6115 49.8171 73.7607C42.5408 72.0197 35.992 68.3492 31.5423 62.0727C30.1314 60.0822 29.0207 57.8916 28.0697 55.6412C27.7132 54.7974 27.5161 53.3223 26.7394 52.7606C25.4002 51.792 22.2783 53.798 21.4406 54.8466C20.3881 56.1644 21.4651 58.1865 22.0193 59.5001C23.7724 63.6529 26.328 67.5749 29.5032 70.7504C37.941 79.1895 49.4438 82.1161 60.9269 80.1725C63.4771 79.741 65.8254 79.2033 68.2277 78.1961C69.0476 77.8524 70.243 77.5202 70.7582 76.7307C71.619 75.4119 71.0032 72.8323 70.7369 71.3984C69.8316 66.5262 68.1315 61.6836 65.3616 57.5707C62.7004 53.6182 58.9894 49.2428 54.5784 47.2803Z" fill="white"/>
</svg>
